<svg width="25" height="25" viewBox="0 0 25 25" fill="none" xmlns="http://www.w3.org/2000/svg">
<path d="M3.66095 3.66095C-1.22032 8.54222 -1.22032 16.4578 3.66095 21.3391C8.54222 26.2203 16.4578 26.2203 21.3391 21.3391C26.2203 16.4578 26.2203 8.54222 21.3391 3.66095C16.4578 -1.22032 8.54222 -1.22032 3.66095 3.66095ZM13.0013 5.24406C14.0567 5.24406 14.9011 6.11478 14.9011 7.17018C14.9011 8.22559 14.0303 9.09631 13.0013 9.09631C11.9459 9.09631 11.0752 8.22559 11.0752 7.1438C11.0752 6.08839 11.9459 5.24406 13.0013 5.24406ZM15.719 18.1464C15.6662 18.3047 15.5607 18.4894 15.4551 18.595C14.7691 19.3074 13.9248 19.7296 12.9222 19.7296C12.4472 19.7296 11.9987 19.7296 11.5237 19.6504C10.7586 19.5449 9.78232 18.595 9.91425 17.5923C10.0198 16.9063 10.1253 16.2203 10.2309 15.5343C10.442 14.347 10.653 13.1332 10.8641 11.9459C10.8641 11.8668 10.8905 11.7876 10.8905 11.7084C10.8905 11.2071 10.7322 11.0224 10.2309 10.9697C10.0198 10.9433 9.80871 10.9169 9.59762 10.8641C9.36016 10.785 9.22823 10.5739 9.25462 10.3892C9.281 10.1781 9.41293 10.0462 9.67678 9.9934C9.80871 9.96702 9.96702 9.96702 10.1253 9.96702C10.7058 9.96702 11.2863 9.96702 11.8931 9.96702C12.5264 9.96702 13.1332 9.96702 13.7665 9.96702C14.215 9.96702 14.4789 10.1781 14.4789 10.6266C14.4789 10.996 14.4261 11.3654 14.347 11.7348C14.1095 13.1069 13.8456 14.4525 13.6082 15.8245C13.529 16.2731 13.4235 16.7216 13.3707 17.1702C13.3443 17.3813 13.3707 17.6187 13.4235 17.8298C13.5026 18.1201 13.7137 18.2784 14.004 18.252C14.2414 18.2256 14.4789 18.1464 14.7164 18.0409C14.9011 17.9617 15.0594 17.8298 15.2441 17.777C15.5607 17.6715 15.7982 17.8562 15.719 18.1464Z" fill="#ED713E"/>
</svg>
